<svg width="1006" height="142" viewBox="0 0 1006 142" fill="none" xmlns="http://www.w3.org/2000/svg">
<g clip-path="url(#clip0_215_11)">
<circle cx="70.8556" cy="70.8556" r="70.8556" fill="#FA9494" fill-opacity="0.4"/>
<circle cx="70.8555" cy="70.8554" r="44.7065" fill="#EB1D36" stroke="white" stroke-width="11.8093"/>
<path d="M43.9234 70.277C43.9234 55.7221 55.7225 43.9231 70.2774 43.9231" stroke="white" stroke-width="8.78465" stroke-linecap="round"/>
</g>
<path d="M244.965 51.6687C244.662 48.5984 243.313 46.2119 240.917 44.5093C238.552 42.7787 235.172 41.9134 230.775 41.9134C227.864 41.9134 225.439 42.2623 223.498 42.9601C221.558 43.658 220.102 44.6209 219.132 45.8491C218.162 47.0493 217.662 48.4309 217.631 49.994C217.571 51.278 217.844 52.4084 218.45 53.3853C219.087 54.3622 219.996 55.2275 221.179 55.9811C222.392 56.7069 223.847 57.3488 225.545 57.9071C227.243 58.4653 229.153 58.9538 231.275 59.3725L239.28 61.0472C243.889 61.9683 247.952 63.1964 251.469 64.7316C255.016 66.2668 257.988 68.095 260.383 70.2163C262.808 72.3376 264.643 74.7799 265.886 77.5432C267.129 80.3065 267.766 83.4048 267.796 86.838C267.766 92.2529 266.28 96.9003 263.339 100.78C260.398 104.66 256.168 107.632 250.65 109.698C245.162 111.763 238.537 112.796 230.775 112.796C222.983 112.796 216.191 111.722 210.4 109.572C204.609 107.423 200.106 104.157 196.892 99.7752C193.678 95.393 192.026 89.8525 191.935 83.1536H213.493C213.674 85.9169 214.478 88.2196 215.903 90.0618C217.328 91.904 219.284 93.2996 221.77 94.2486C224.287 95.1976 227.197 95.6722 230.502 95.6722C233.534 95.6722 236.111 95.2953 238.234 94.5417C240.387 93.7881 242.039 92.7414 243.191 91.4016C244.343 90.0618 244.935 88.5267 244.965 86.7961C244.935 85.1772 244.389 83.7956 243.328 82.6512C242.266 81.4789 240.629 80.474 238.416 79.6367C236.233 78.7714 233.443 77.9759 230.047 77.2502L220.315 75.1568C212.249 73.4541 205.897 70.7048 201.258 66.9087C196.619 63.0848 194.315 57.921 194.345 51.4175C194.315 46.1142 195.861 41.4669 198.984 37.4754C202.107 33.484 206.428 30.3718 211.946 28.1388C217.465 25.9059 223.756 24.7894 230.821 24.7894C238.037 24.7894 244.298 25.9198 249.604 28.1807C254.94 30.4137 259.079 33.5538 262.02 37.601C264.961 41.6483 266.462 46.3375 266.523 51.6687H244.965Z" fill="#1C152C"/>
<path d="M319.46 112.922C312.092 112.922 305.77 111.526 300.495 108.735C295.249 105.944 291.217 102.064 288.397 97.0957C285.577 92.0994 284.167 86.3216 284.167 79.7623C284.167 73.175 285.577 67.3972 288.397 62.4288C291.247 57.4326 295.295 53.5388 300.54 50.7476C305.816 47.9564 312.107 46.5608 319.414 46.5608C325.873 46.5608 331.497 47.6354 336.288 49.7847C341.109 51.9339 344.868 54.9763 347.567 58.9119C350.296 62.8196 351.736 67.4112 351.887 72.6865H331.103C330.678 69.3929 329.466 66.811 327.465 64.9409C325.494 63.0708 322.916 62.1358 319.733 62.1358C317.156 62.1358 314.897 62.8057 312.956 64.1454C311.016 65.4573 309.5 67.4112 308.408 70.007C307.347 72.5749 306.816 75.7569 306.816 79.5529C306.816 83.349 307.347 86.5589 308.408 89.1826C309.5 91.7784 311.016 93.7462 312.956 95.086C314.897 96.3979 317.156 97.0538 319.733 97.0538C321.795 97.0538 323.614 96.6491 325.19 95.8396C326.797 95.0302 328.116 93.8439 329.147 92.2808C330.178 90.6898 330.83 88.7639 331.103 86.503H351.887C351.675 91.8063 350.235 96.4397 347.567 100.403C344.929 104.367 341.215 107.451 336.424 109.656C331.664 111.833 326.009 112.922 319.46 112.922Z" fill="#1C152C"/>
<path d="M370.953 111.708V47.3982H392.556V59.1213H393.284C394.558 54.8786 396.635 51.7246 399.515 49.6591C402.395 47.5656 405.746 46.5189 409.566 46.5189C410.597 46.5189 411.658 46.5887 412.75 46.7283C413.841 46.8399 414.857 47.0214 415.797 47.2726V65.0665C414.736 64.7316 413.341 64.4664 411.613 64.271C409.915 64.0757 408.399 63.978 407.065 63.978C404.427 63.978 402.047 64.5223 399.924 65.6108C397.832 66.6715 396.18 68.1648 394.967 70.0907C393.784 71.9887 393.193 74.2217 393.193 76.7896V111.708H370.953Z" fill="#1C152C"/>
<path d="M461.571 112.922C454.264 112.922 447.957 111.596 442.651 108.944C437.376 106.265 433.313 102.455 430.463 97.5144C427.643 92.546 426.233 86.6426 426.233 79.8041C426.233 73.161 427.658 67.3553 430.508 62.387C433.358 57.3907 437.376 53.5109 442.56 50.7476C447.745 47.9564 453.855 46.5608 460.889 46.5608C465.861 46.5608 470.409 47.2726 474.533 48.6961C478.657 50.1196 482.219 52.227 485.221 55.0182C488.223 57.8094 490.557 61.2565 492.225 65.3596C493.892 69.4348 494.726 74.1101 494.726 79.3854V84.4934H434.01V72.6028H474.033C474.002 70.4257 473.441 68.4858 472.35 66.7831C471.258 65.0805 469.758 63.7547 467.847 62.8057C465.967 61.8287 463.8 61.3403 461.344 61.3403C458.857 61.3403 456.629 61.8566 454.658 62.8894C452.687 63.8942 451.126 65.2759 449.974 67.0343C448.821 68.7649 448.215 70.7327 448.154 72.9377V85.0377C448.154 87.6614 448.715 89.9641 449.837 91.9459C450.959 93.8997 452.551 95.421 454.613 96.5095C456.674 97.5981 459.13 98.1424 461.98 98.1424C463.951 98.1424 465.74 97.8912 467.347 97.3888C468.954 96.8863 470.334 96.1467 471.486 95.1697C472.638 94.1928 473.502 92.9926 474.078 91.5691L494.499 92.1134C493.65 96.3281 491.785 99.9985 488.905 103.125C486.055 106.223 482.31 108.637 477.671 110.368C473.032 112.071 467.665 112.922 461.571 112.922Z" fill="#1C152C"/>
<path d="M546.424 112.922C539.117 112.922 532.81 111.596 527.504 108.944C522.229 106.265 518.166 102.455 515.316 97.5144C512.496 92.546 511.086 86.6426 511.086 79.8041C511.086 73.161 512.511 67.3553 515.361 62.387C518.211 57.3907 522.229 53.5109 527.413 50.7476C532.598 47.9564 538.708 46.5608 545.742 46.5608C550.715 46.5608 555.263 47.2726 559.386 48.6961C563.51 50.1196 567.072 52.227 570.074 55.0182C573.076 57.8094 575.41 61.2565 577.078 65.3596C578.746 69.4348 579.579 74.1101 579.579 79.3854V84.4934H518.863V72.6028H558.886C558.855 70.4257 558.295 68.4858 557.203 66.7831C556.112 65.0805 554.611 63.7547 552.701 62.8057C550.821 61.8287 548.653 61.3403 546.197 61.3403C543.711 61.3403 541.482 61.8566 539.511 62.8894C537.54 63.8942 535.979 65.2759 534.827 67.0343C533.675 68.7649 533.068 70.7327 533.008 72.9377V85.0377C533.008 87.6614 533.568 89.9641 534.69 91.9459C535.812 93.8997 537.404 95.421 539.466 96.5095C541.527 97.5981 543.983 98.1424 546.834 98.1424C548.804 98.1424 550.593 97.8912 552.2 97.3888C553.807 96.8863 555.187 96.1467 556.339 95.1697C557.491 94.1928 558.355 92.9926 558.931 91.5691L579.352 92.1134C578.503 96.3281 576.638 99.9985 573.758 103.125C570.908 106.223 567.163 108.637 562.524 110.368C557.885 112.071 552.519 112.922 546.424 112.922Z" fill="#1C152C"/>
<path d="M620.862 75.0312V111.708H598.622V47.3982H619.771V59.205H620.544C622.09 55.2694 624.728 52.1851 628.458 49.9521C632.187 47.6913 636.629 46.5608 641.783 46.5608C646.695 46.5608 650.955 47.5796 654.563 49.6172C658.202 51.6269 661.022 54.446 663.023 58.0746C665.054 61.6752 666.055 65.8899 666.024 70.7187V111.708H643.784V74.7381C643.815 71.1653 642.829 68.3741 640.828 66.3644C638.857 64.3548 636.113 63.3499 632.596 63.3499C630.262 63.3499 628.2 63.8244 626.411 64.7735C624.652 65.6946 623.288 67.0204 622.318 68.7509C621.378 70.4815 620.893 72.5749 620.862 75.0312Z" fill="#1C152C"/>
<path d="M710.881 112.629C705.727 112.629 701.042 111.401 696.828 108.944C692.613 106.488 689.248 102.804 686.731 97.8912C684.215 92.9786 682.956 86.8798 682.956 79.5948C682.956 72.0306 684.26 65.8062 686.868 60.9216C689.475 56.037 692.886 52.4224 697.101 50.0777C701.345 47.7331 705.909 46.5608 710.79 46.5608C714.459 46.5608 717.597 47.147 720.205 48.3193C722.812 49.4637 724.965 50.943 726.663 52.7573C728.361 54.5716 729.649 56.4557 730.529 58.4095H730.983V25.9617H753.223V111.708H731.211V101.282H730.529C729.589 103.264 728.255 105.12 726.526 106.851C724.798 108.582 722.63 109.977 720.023 111.038C717.445 112.098 714.398 112.629 710.881 112.629ZM718.613 96.677C721.311 96.677 723.616 95.9792 725.526 94.5836C727.436 93.1601 728.907 91.1644 729.937 88.5964C730.968 86.0285 731.484 83.014 731.484 79.5529C731.484 76.036 730.968 73.0075 729.937 70.4675C728.937 67.9275 727.466 65.9737 725.526 64.606C723.616 63.2383 721.311 62.5544 718.613 62.5544C715.854 62.5544 713.519 63.2522 711.609 64.6479C709.699 66.0435 708.243 68.0113 707.243 70.5513C706.272 73.0913 705.787 76.0918 705.787 79.5529C705.787 83.014 706.288 86.0285 707.288 88.5964C708.289 91.1644 709.729 93.1601 711.609 94.5836C713.519 95.9792 715.854 96.677 718.613 96.677Z" fill="#1C152C"/>
<path d="M805.477 112.922C798.17 112.922 791.863 111.596 786.557 108.944C781.282 106.265 777.219 102.455 774.369 97.5144C771.549 92.546 770.139 86.6426 770.139 79.8041C770.139 73.161 771.564 67.3553 774.414 62.387C777.264 57.3907 781.282 53.5109 786.466 50.7476C791.651 47.9564 797.761 46.5608 804.795 46.5608C809.767 46.5608 814.315 47.2726 818.439 48.6961C822.563 50.1196 826.125 52.227 829.127 55.0182C832.129 57.8094 834.463 61.2565 836.131 65.3596C837.799 69.4348 838.632 74.1101 838.632 79.3854V84.4934H777.916V72.6028H817.939C817.908 70.4257 817.348 68.4858 816.256 66.7831C815.164 65.0805 813.664 63.7547 811.753 62.8057C809.874 61.8287 807.706 61.3403 805.25 61.3403C802.763 61.3403 800.535 61.8566 798.564 62.8894C796.593 63.8942 795.032 65.2759 793.88 67.0343C792.728 68.7649 792.121 70.7327 792.06 72.9377V85.0377C792.06 87.6614 792.621 89.9641 793.743 91.9459C794.865 93.8997 796.457 95.421 798.519 96.5095C800.58 97.5981 803.036 98.1424 805.887 98.1424C807.857 98.1424 809.646 97.8912 811.253 97.3888C812.86 96.8863 814.24 96.1467 815.392 95.1697C816.544 94.1928 817.408 92.9926 817.984 91.5691L838.405 92.1134C837.556 96.3281 835.691 99.9985 832.811 103.125C829.961 106.223 826.216 108.637 821.577 110.368C816.938 112.071 811.572 112.922 805.477 112.922Z" fill="#1C152C"/>
<path d="M916.553 67.0343L896.133 67.5368C895.92 66.197 895.344 65.0107 894.404 63.978C893.464 62.9173 892.237 62.0939 890.721 61.5077C889.235 60.8937 887.507 60.5866 885.536 60.5866C882.959 60.5866 880.76 61.0611 878.941 62.0102C877.152 62.9592 876.273 64.2431 876.303 65.862C876.273 67.1181 876.819 68.2066 877.941 69.1277C879.093 70.0488 881.139 70.7885 884.08 71.3468L897.543 73.6914C904.516 74.9195 909.701 76.9571 913.097 79.8041C916.523 82.6512 918.251 86.4193 918.282 91.1085C918.251 95.5186 916.826 99.3566 914.006 102.622C911.217 105.888 907.397 108.428 902.545 110.242C897.694 112.029 892.146 112.922 885.9 112.922C875.924 112.922 868.056 111.038 862.295 107.27C856.565 103.474 853.29 98.3936 852.472 92.0296L874.439 91.5272C874.924 93.8718 876.182 95.6582 878.213 96.8863C880.245 98.1145 882.837 98.7285 885.991 98.7285C888.841 98.7285 891.16 98.2401 892.949 97.2632C894.738 96.2862 895.648 94.9883 895.678 93.3694C895.648 91.918 894.95 90.7596 893.586 89.8944C892.221 89.0012 890.084 88.3034 887.173 87.8009L874.984 85.6657C867.98 84.4934 862.765 82.3302 859.339 79.1761C855.913 75.9941 854.215 71.9469 854.245 67.0343C854.215 62.7359 855.458 59.0654 857.975 56.023C860.491 52.9527 864.069 50.6081 868.708 48.9892C873.347 47.3703 878.82 46.5608 885.126 46.5608C894.586 46.5608 902.045 48.3891 907.503 52.0455C912.96 55.6741 915.977 60.6704 916.553 67.0343Z" fill="#1C152C"/>
<path d="M956.972 94.8348L957.063 70.4257H960.156L979.803 47.3982H1005L975.801 80.3903H969.934L956.972 94.8348ZM936.915 111.708V25.9617H959.155V111.708H936.915ZM980.304 111.708L962.02 84.9958L976.665 70.4675L1006 111.708H980.304Z" fill="#1C152C"/>
<defs>
<clipPath id="clip0_215_11">
<rect width="142" height="142" fill="white"/>
</clipPath>
</defs>
</svg>
