<svg width="18" height="18" viewBox="0 0 18 18" fill="none" xmlns="http://www.w3.org/2000/svg">
<path d="M14.25 2.25H6.75C5.92157 2.25 5.25 2.92157 5.25 3.75V11.25C5.25 12.0784 5.92157 12.75 6.75 12.75H14.25C15.0784 12.75 15.75 12.0784 15.75 11.25V3.75C15.75 2.92157 15.0784 2.25 14.25 2.25Z" stroke="#E11D48" stroke-width="1.5"/>
<path d="M2.25 5.25V9.75C2.25 12.5784 2.25 13.9927 3.12868 14.8713C4.00736 15.75 5.42157 15.75 8.25 15.75H12.75" stroke="#E11D48" stroke-width="1.5" stroke-linecap="round"/>
<path d="M12.6818 7.37102L9.00167 5.19638C8.90169 5.13729 8.77539 5.20938 8.77539 5.32552V9.67478C8.77539 9.79095 8.90169 9.86303 9.00167 9.80393L12.6818 7.6293C12.7801 7.57125 12.7801 7.42908 12.6818 7.37102Z" stroke="#E11D48" stroke-width="1.5" stroke-linecap="round" stroke-linejoin="round"/>
</svg>
