<svg width="18" height="18" viewBox="0 0 18 18" fill="none" xmlns="http://www.w3.org/2000/svg">
<g clip-path="url(#clip0_824_6)">
<mask id="mask0_824_6" style="mask-type:luminance" maskUnits="userSpaceOnUse" x="0" y="0" width="18" height="18">
<path d="M18 0H0V18H18V0Z" fill="white"/>
</mask>
<g mask="url(#mask0_824_6)">
<path d="M1.5 7.5C1.5 4.67157 1.5 3.25736 2.37868 2.37868C3.25736 1.5 4.67157 1.5 7.5 1.5H10.5C13.3284 1.5 14.7427 1.5 15.6213 2.37868C16.5 3.25736 16.5 4.67157 16.5 7.5C16.5 10.3284 16.5 11.7427 15.6213 12.6213C14.7427 13.5 13.3284 13.5 10.5 13.5H7.5C4.67157 13.5 3.25736 13.5 2.37868 12.6213C1.5 11.7427 1.5 10.3284 1.5 7.5Z" stroke="#E11D48" stroke-width="1.25" stroke-linecap="round"/>
<path d="M12 16.5C11.1175 16.023 10.0928 15.75 9 15.75C7.90717 15.75 6.88252 16.023 6 16.5" stroke="#E11D48" stroke-width="1.25" stroke-linecap="round"/>
</g>
</g>
<defs>
<clipPath id="clip0_824_6">
<rect width="18" height="18" fill="white"/>
</clipPath>
</defs>
</svg>
