<svg width="18" height="18" viewBox="0 0 18 18" fill="none" xmlns="http://www.w3.org/2000/svg">
<path d="M14.25 2.25H6.75C5.92157 2.25 5.25 2.92157 5.25 3.75V11.25C5.25 12.0784 5.92157 12.75 6.75 12.75H14.25C15.0784 12.75 15.75 12.0784 15.75 11.25V3.75C15.75 2.92157 15.0784 2.25 14.25 2.25Z" stroke="#959595" stroke-width="1.5"/>
<path d="M2.25 5.25V9.75C2.25 12.5784 2.25 13.9927 3.12868 14.8713C4.00736 15.75 5.42157 15.75 8.25 15.75H12.75" stroke="#959595" stroke-width="1.5" stroke-linecap="round"/>
<path d="M12.6816 7.3709L9.00143 5.19626C8.90145 5.13717 8.77515 5.20926 8.77515 5.3254V9.67466C8.77515 9.79083 8.90145 9.86291 9.00143 9.80381L12.6816 7.62918C12.7799 7.57113 12.7799 7.42896 12.6816 7.3709Z" stroke="#959595" stroke-width="1.5" stroke-linecap="round" stroke-linejoin="round"/>
</svg>
