<svg width="337" height="9" viewBox="0 0 337 9" fill="none" xmlns="http://www.w3.org/2000/svg">
<g clip-path="url(#clip0_819_10)">
<path d="M1 5.00005H105.382C106.456 5.00005 107.495 4.62482 108.321 3.93928C110.026 2.52491 112.496 2.52491 114.2 3.93928L115.78 5.25005C118.4 7.42445 122.197 7.42445 124.817 5.25005L127.675 2.8785C131.084 0.0497739 136.024 0.0497792 139.433 2.8785C141.085 4.24959 143.164 5.00005 145.311 5.00005H181.681C184.527 5.00005 187.358 5.41786 190.082 6.24012C196.024 8.03295 202.382 7.87831 208.229 5.79883L209.817 5.23436C216.64 2.80758 224.058 2.60884 231.001 4.66677L235.4 5.97027C242.134 7.96609 249.222 8.46899 256.17 7.44389L265.973 5.99773C270.475 5.3335 275.02 5.00005 279.571 5.00005H336" stroke="#E11D48" stroke-width="1.5" stroke-linecap="round"/>
</g>
<defs>
<clipPath id="clip0_819_10">
<rect width="337" height="9" fill="white"/>
</clipPath>
</defs>
</svg>
